<?xml version="1.0" encoding="utf-8"?>
<!-- Generator: Adobe Illustrator 25.2.3, SVG Export Plug-In . SVG Version: 6.00 Build 0)  -->
<svg version="1.1" id="Layer_1" xmlns="http://www.w3.org/2000/svg" xmlns:xlink="http://www.w3.org/1999/xlink" x="0px" y="0px"
	 viewBox="0 0 150 150" style="enable-background:new 0 0 150 150;" xml:space="preserve">
<style type="text/css">
	.st0{fill:#4C4C4C;}
</style>
<g id="_x31_55">
	<path class="st0" d="M29.2,73.9c-0.1,0.6,0.1,1.1,0.6,1.4l14.3,8.2l-3.7,2.1c1.3,0.8-19.4-11.2-19.6-11.3l9.6-5.6L29.2,73.9z
		 M36.2,55.5l20.2,11.7l4.1,22.9C42.5,79.7,35.5,75.6,33.1,74.2c0,0,0,0,0,0c0,0,0,0,0,0c0,0,0,0,0,0c0,0-0.1-0.1-0.2-0.1
		c0,0,0.1,0,0.1,0c-0.1-0.1-0.2-0.1-0.3-0.1c-0.2-0.1-0.4-0.2-0.7-0.4L36.2,55.5z M114.2,32L57.6,64.9L38,53.5
		c6.9-4-21.6,12.6,56.6-32.9L114.2,32z M63.3,90.6L59.1,67l56.8-33l4.3,23.6L63.3,90.6z M128.9,71.3l-56.5,32.9
		C72.6,104.3,53,93,52.7,92.8l3.7-2.1c-0.3-0.2,2.4,1.4,5.5,3.2c0.4,0.2,0.9,0.1,1.2-0.1l52.2-30.4L128.9,71.3z M73.8,106.3l56.8-33
		l4.3,23.6l-56.8,33L73.8,106.3z M46.7,112.9l4.3-18.1c-0.3-0.2,13.2,7.6,20.2,11.7l4.1,22.9L46.7,112.9z M45.3,107.1l-3.5-19.2
		l4.8-2.8l7,4.1l-4.3,2.5c-0.3,0.2-0.6,0.6-0.6,0.8L45.3,107.1z M14.8,94.5L19,76.4C17.7,75.6,39,87.9,39.2,88.1l4.2,22.9L14.8,94.5
		z"/>
	<path class="st0" d="M32.1,73.6c0.1,0,0.3,0.2,0.6,0.4c0.1,0,0.1,0.1,0.2,0.1C32.6,73.9,32.2,73.7,32.1,73.6z"/>
	<path class="st0" d="M33.1,74.2C33.1,74.2,33.1,74.2,33.1,74.2C33.1,74.3,33.1,74.3,33.1,74.2z"/>
	<path class="st0" d="M32.1,73.6C32,73.6,32,73.6,32.1,73.6L32.1,73.6z"/>
</g>
</svg>
