<?xml version="1.0" standalone="no"?>
<!DOCTYPE svg PUBLIC "-//W3C//DTD SVG 20010904//EN"
 "http://www.w3.org/TR/2001/REC-SVG-20010904/DTD/svg10.dtd">
<svg version="1.0" xmlns="http://www.w3.org/2000/svg"
 width="260.000000pt" height="260.000000pt" viewBox="0 0 260.000000 260.000000"
 preserveAspectRatio="xMidYMid meet">
<metadata>
Created by potrace 1.14, written by Peter Selinger 2001-2017
</metadata>
<g transform="translate(0.000000,260.000000) scale(0.100000,-0.100000)"
fill="#000000" stroke="none">
<path d="M1610 2227 c-26 -14 -69 -39 -435 -252 -243 -142 -287 -167 -423
-246 -85 -48 -92 -55 -75 -67 37 -27 310 -182 321 -182 19 0 967 554 968 565
0 8 -119 85 -131 85 -1 0 -44 25 -94 55 -51 30 -95 55 -99 55 -4 0 -18 -6 -32
-13z"/>
<path d="M1960 1983 c-25 -14 -103 -59 -175 -101 -71 -41 -146 -84 -165 -95
-19 -10 -39 -23 -45 -27 -5 -4 -30 -19 -55 -32 -83 -46 -485 -281 -492 -287
-6 -5 20 -161 52 -314 5 -27 10 -59 10 -73 0 -13 3 -24 8 -24 4 0 33 16 65 35
32 19 62 35 68 35 5 0 9 5 9 10 0 6 4 10 8 10 7 0 116 60 182 100 29 18 216
127 428 250 118 67 216 128 218 135 3 6 -5 63 -16 126 -11 63 -27 149 -35 193
-7 43 -15 79 -17 81 -2 2 -23 -8 -48 -22z"/>
<path d="M605 1553 c-10 -43 -26 -112 -35 -154 l-17 -76 101 -59 c56 -32 115
-66 131 -75 17 -9 81 -46 143 -83 62 -36 115 -66 118 -66 3 0 2 17 -1 38 -4
20 -9 51 -12 67 -2 17 -16 88 -29 159 -13 71 -24 130 -24 131 0 2 -62 38 -137
81 -76 43 -150 86 -165 96 -45 31 -53 24 -73 -59z"/>
<path d="M1760 1366 c-124 -73 -328 -192 -453 -265 l-228 -132 -50 31 c-49 30
-51 30 -80 13 -16 -9 -29 -20 -29 -24 0 -4 17 -16 38 -27 20 -11 96 -54 167
-95 115 -67 132 -74 150 -63 11 7 178 104 370 216 193 112 404 235 471 274
l121 71 -116 67 c-64 37 -120 67 -126 67 -5 -1 -111 -60 -235 -133z"/>
<path d="M465 1374 c-122 -73 -130 -53 65 -164 l171 -98 29 16 c37 21 37 27 3
44 -16 8 -72 40 -127 72 -108 64 -102 53 -82 144 3 12 4 22 3 22 -1 0 -29 -16
-62 -36z"/>
<path d="M2140 1261 c-63 -38 -279 -164 -480 -280 -201 -117 -369 -216 -373
-220 -11 -11 58 -411 70 -411 4 0 27 13 52 29 25 15 120 71 211 123 91 53 257
150 370 215 113 66 237 138 276 161 l71 41 -29 163 c-15 90 -30 172 -32 183
-3 11 -5 30 -5 43 -1 12 -4 22 -8 21 -5 0 -60 -31 -123 -68z"/>
<path d="M326 1261 c-17 -58 -66 -276 -66 -289 1 -16 38 -39 315 -196 27 -15
76 -44 109 -62 32 -19 61 -33 64 -30 2 3 -1 34 -8 68 -7 35 -13 72 -15 83 -7
47 -16 101 -20 115 -3 8 -7 33 -10 55 -4 22 -8 47 -11 56 -2 8 -83 61 -179
116 -141 81 -175 98 -179 84z"/>
<path d="M765 1101 l-41 -26 17 -90 c10 -49 21 -111 24 -136 3 -26 10 -59 14
-75 9 -34 7 -41 46 122 26 110 27 112 67 134 45 25 44 25 -32 67 l-55 31 -40
-27z"/>
<path d="M845 805 c-30 -125 -35 -158 -25 -170 7 -8 16 -15 20 -15 4 0 68 -36
143 -79 74 -43 155 -91 181 -105 25 -14 66 -37 90 -51 25 -14 47 -25 49 -25 2
0 -9 69 -24 153 -16 83 -31 170 -34 192 -5 36 -44 85 -67 85 -3 0 -50 26 -105
58 -54 32 -119 70 -145 85 l-46 27 -37 -155z"/>
</g>
</svg>
