<?xml version="1.0" encoding="utf-8"?>
<!-- Generator: Adobe Illustrator 25.2.3, SVG Export Plug-In . SVG Version: 6.00 Build 0)  -->
<svg version="1.1" id="Layer_1" xmlns="http://www.w3.org/2000/svg" xmlns:xlink="http://www.w3.org/1999/xlink" x="0px" y="0px"
	 viewBox="0 0 64 64" style="enable-background:new 0 0 64 64;" xml:space="preserve">
<style type="text/css">
	.st0{fill-rule:evenodd;clip-rule:evenodd;fill:#FFFFFF;}
</style>
<g>
	<path class="st0" d="M40.2,29.7h-1.4L38.2,33h0h1.3c1-0.1,1.9-0.4,2-2.3C41.5,30,41,29.7,40.2,29.7z"/>
	<path class="st0" d="M25.3,29.7h-1.4L23.3,33l0,0h1.3c1-0.1,1.9-0.4,2-2.3C26.7,30,26.1,29.7,25.3,29.7z"/>
	<path class="st0" d="M32,23.6c-8.9,0-16.2,3.8-16.2,8.4s7.3,8.4,16.2,8.4s16.2-3.8,16.2-8.4S40.9,23.6,32,23.6z M24.9,34.7h-2
		L22.5,37h-2.1l1.8-9h4.1c1.8,0.1,2.7,1,2.7,2.6C28.9,33.2,26.8,34.8,24.9,34.7z M33.3,29.7h-1.7l-1,5h-2.1l1.8-9h2.1L31.9,28h2
		c1.8,0.1,2.4,1,2.2,2.1l-0.8,4.5h-2.2l0.8-4.1C34,30,34,29.7,33.3,29.7z M39.8,34.7h-2L37.3,37h-2.1l1.8-9h4.1
		c1.8,0.1,2.7,1,2.7,2.6C43.8,33.2,41.7,34.8,39.8,34.7z"/>
</g>
</svg>
