<?xml version="1.0" encoding="utf-8"?>
<!-- Generator: Adobe Illustrator 25.2.3, SVG Export Plug-In . SVG Version: 6.00 Build 0)  -->
<svg version="1.1" id="Layer_1" xmlns="http://www.w3.org/2000/svg" xmlns:xlink="http://www.w3.org/1999/xlink" x="0px" y="0px"
	 viewBox="0 0 64 64" style="enable-background:new 0 0 64 64;" xml:space="preserve">
<style type="text/css">
	.st0{fill:#FFFFFF;}
</style>
<g>
	<path class="st0" d="M15.8,16.1v31.9h32.4V16.1H15.8z M45.6,45.4H18.4V18.6h27.2V45.4z"/>
	<g>
		<path class="st0" d="M23.6,25c0,0,2-0.1,3.7-0.1c1.7,0,2.9,0.4,3.7,1.1c0.8,0.7,1.3,1.8,1.3,3.1c0,1.3-0.4,2.3-1.1,3.1
			c-0.9,1-2,1.5-3.9,1.6c-0.5,0-1,0-1,0v4.2h-2.7L23.6,25L23.6,25z M26.4,31.6c0.3,0,0.5,0,0.9,0c1.5,0,2.4-0.9,2.4-2.3
			c0-1.2-0.7-2.2-2.2-2.3c-0.6,0-1.1,0-1.1,0V31.6z"/>
		<path class="st0" d="M33.4,35.2c0.6,0.3,1.9,0.8,2.7,0.8c0.9,0,1.3-0.3,1.3-0.8c0-0.5-0.3-1-1.4-1.4c-2-0.7-2.8-1.5-2.7-2.6
			c0-1.8,1.5-3.2,3.9-3.2c1.1,0,2,0.4,2.6,0.7v2.2c-0.4-0.2-1.7-0.8-2.5-0.8c-0.7,0-1.1,0.3-1.1,0.8c0,0.5,0.4,0.7,1.6,1.1
			c1.8,0.6,2.6,1.6,2.6,3c0,1.8-1.4,3.3-4.2,3.2c-1,0-2-0.4-2.7-0.8L33.4,35.2L33.4,35.2z"/>
	</g>
</g>
</svg>
