<?xml version="1.0" encoding="utf-8"?>
<!-- Generator: Adobe Illustrator 25.2.3, SVG Export Plug-In . SVG Version: 6.00 Build 0)  -->
<svg version="1.1" id="Layer_1" xmlns="http://www.w3.org/2000/svg" xmlns:xlink="http://www.w3.org/1999/xlink" x="0px" y="0px"
	 viewBox="0 0 64 64" style="enable-background:new 0 0 64 64;" xml:space="preserve">
<style type="text/css">
	.st0{fill:#FFFFFF;}
</style>
<path class="st0" d="M15.8,15.8v32.4h32.4V15.8H15.8z M32.9,43.5c-0.5,1-1.4,1.6-2.4,1.9c-1.6,0.4-3.2,0.2-4.3-0.5
	c-0.8-0.5-1.4-1.2-1.8-2c0.8-0.5,1.6-1,2.5-1.5c0,0,0.1,0.1,0.2,0.3c0.3,0.5,0.6,0.9,1.1,1.2c0.5,0.2,1.7,0.3,2.1-0.6
	c0.3-0.5,0.2-2,0.2-3.7c0-2.6,0-5.2,0-7.8h3l0,0c0,2.8,0,5.6,0,8.3C33.4,40.7,33.6,42.3,32.9,43.5z M45.4,42.7
	c-1.1,3.6-6.9,3.7-9.3,1.3c-0.5-0.6-0.8-0.9-1.1-1.5c1.2-0.7,1.2-0.7,2.5-1.4c0.7,1,1.3,1.6,2.4,1.8c1.5,0.2,3-0.3,2.6-1.9
	c-0.3-1.3-3-1.6-4.9-3c-1.9-1.3-2.3-4.3-0.8-6c0.5-0.6,1.4-1.1,2.3-1.4c0.3,0,0.6-0.1,1-0.1c1.8,0,3,0.4,3.8,1.4
	c0.2,0.2,0.4,0.5,0.8,1c-1,0.6-1,0.6-2.4,1.5c-0.3-0.6-0.8-1-1.3-1.2c-0.8-0.2-1.8,0-2.1,0.9c-0.1,0.3-0.1,0.5,0.1,0.9
	c0.3,0.8,1.4,1.1,2.4,1.5c2.9,1.2,3.8,2.4,4.1,3.9C45.8,41.7,45.5,42.6,45.4,42.7z"/>
</svg>
