<?xml version="1.0" encoding="utf-8"?>
<!-- Generator: Adobe Illustrator 25.2.3, SVG Export Plug-In . SVG Version: 6.00 Build 0)  -->
<svg version="1.1" id="Layer_1" xmlns="http://www.w3.org/2000/svg" xmlns:xlink="http://www.w3.org/1999/xlink" x="0px" y="0px"
	 viewBox="0 0 64 64" style="enable-background:new 0 0 64 64;" xml:space="preserve">
<style type="text/css">
	.st0{fill:#FFFFFF;}
</style>
<g>
	<path class="st0" d="M43.2,39.1l-3.7-3.7l-4.2,4.2l3.7,3.7c1.1,1.1,3,1.1,4.2,0l0,0C44.3,42.2,44.3,40.3,43.2,39.1L43.2,39.1z"/>
	<path class="st0" d="M38,22.8c-4.2-4.2-11-4.2-15.1,0c-3.9,4.2-3.8,10.8,0.3,14.9S33.8,42,38,38C42.1,33.9,42.1,27.1,38,22.8
		L38,22.8L38,22.8z M33.7,33.8c-1.9,1.7-4.8,1.7-6.6-0.2c-1.8-1.8-1.9-4.7-0.2-6.6c1.9-1.7,4.8-1.7,6.6,0.2
		C35.4,29,35.5,31.9,33.7,33.8L33.7,33.8z"/>
</g>
</svg>
