<?xml version="1.0" encoding="utf-8"?>
<!-- Generator: Adobe Illustrator 25.2.3, SVG Export Plug-In . SVG Version: 6.00 Build 0)  -->
<svg version="1.1" id="Layer_1" xmlns="http://www.w3.org/2000/svg" xmlns:xlink="http://www.w3.org/1999/xlink" x="0px" y="0px"
	 viewBox="0 0 64 64" style="enable-background:new 0 0 64 64;" xml:space="preserve">
<style type="text/css">
	.st0{fill:#FFFFFF;}
</style>
<g>
	<g>
		<polygon class="st0" points="28.7,17.3 28.7,15.8 25.1,15.8 25.1,20.2 28.7,20.2 28.7,18.7 26.6,18.7 26.6,17.3 		"/>
		<polygon class="st0" points="33.7,15.8 30.2,15.8 30.2,17.3 31.6,18.7 30.2,18.7 30.2,20.2 33.7,20.2 33.7,18.7 32.4,17.3 
			33.7,17.3 		"/>
		<polygon class="st0" points="38.9,15.8 35.3,15.8 35.3,17.3 36.8,18.7 35.3,18.7 35.3,20.2 38.9,20.2 38.9,18.7 37.5,17.3 
			38.9,17.3 		"/>
	</g>
	<path class="st0" d="M20.5,22.2l2.1,23.4l9.4,2.6l9.4-2.6l2.1-23.4H20.5z M38.9,29.6L32,32.7h6.7l-0.8,8.9L32,43.2v0l0,0l-5.9-1.6
		l-0.4-4.5h2.9l0.2,2.3l3.2,0.9l0,0v0l3.2-0.9l0.3-3.8H32h-6.5l-0.3-2.9l6.7-2.9l0.5-0.2H32h-7l-0.3-2.9H32h0h7.2L38.9,29.6z"/>
</g>
</svg>
