<?xml version="1.0" encoding="utf-8"?>
<!-- Generator: Adobe Illustrator 25.2.3, SVG Export Plug-In . SVG Version: 6.00 Build 0)  -->
<svg version="1.1" id="Layer_1" xmlns="http://www.w3.org/2000/svg" xmlns:xlink="http://www.w3.org/1999/xlink" x="0px" y="0px"
	 viewBox="0 0 64 64" style="enable-background:new 0 0 64 64;" xml:space="preserve">
<style type="text/css">
	.st0{fill:#FFFFFF;}
</style>
<g>
	<path class="st0" d="M22.7,15.8h1.5v1.4h1.3v-1.4h1.5v4.4h-1.5v-1.5h-1.3v1.5h-1.5L22.7,15.8L22.7,15.8z M28.8,17.2h-1.3v-1.4h4
		v1.4h-1.3v2.9h-1.5L28.8,17.2z M32.2,15.8h1.5l0.9,1.5l0.9-1.5h1.5v4.4h-1.5V18l-1,1.6h0l-1-1.6v2.2h-1.4L32.2,15.8L32.2,15.8z
		 M37.9,15.8h1.5v2.9h2.1v1.4h-3.5V15.8z"/>
	<path class="st0" d="M20.5,22.2l2.1,23.4l9.4,2.6l9.4-2.6l2.1-23.4H20.5z M39.1,27.7L39,29.2l-0.1,0.6H32h0h-4.1l0.3,2.9H32h5.9
		h0.8l-0.1,0.8l-0.7,7.6l0,0.5L32,43.2v0l0,0l-5.9-1.6l-0.4-4.5h2.9l0.2,2.3l3.2,0.9l0,0v0l3.2-0.9l0.3-3.7H32h0h-6.4l-0.7-7.9
		L24.8,27H32v0l7.2,0L39.1,27.7z"/>
</g>
</svg>
