<?xml version="1.0" encoding="utf-8"?>
<!-- Generator: Adobe Illustrator 25.2.3, SVG Export Plug-In . SVG Version: 6.00 Build 0)  -->
<svg version="1.1" id="Layer_1" xmlns="http://www.w3.org/2000/svg" xmlns:xlink="http://www.w3.org/1999/xlink" x="0px" y="0px"
	 viewBox="0 0 64 64" style="enable-background:new 0 0 64 64;" xml:space="preserve">
<style type="text/css">
	.st0{fill-rule:evenodd;clip-rule:evenodd;fill:#FFFFFF;}
</style>
<g>
	<path class="st0" d="M27.8,43.4c1.2-0.1,1.3-1.3,0.8-1.9c-0.5-0.5-2.9-2.3-3.6-3c-0.3-0.3-0.7-0.5-0.9-0.9c-0.4-0.9-0.7-2.1-0.2-3
		c0.1-0.1,0.1-0.1,0.1,0.3c-0.4,1.9,0.9,3.4,1.1,2.6c0.2-0.5,0-1.5,0.1-2.3c0.2-1.4,1.5-4,2-4.2c-0.9-1.6,1-2.8,1-4.2
		c0-0.9,0.8,1.1,1.6,1.5c0.9,0.5,1.9-0.9,3.3-1.6c0.4-0.2,0.9-0.4,0.9-0.6c-0.2-0.8-1.9,1-3.4,1.1c-0.7,0-0.9-0.1-1.2-0.4
		c-0.8-0.7,0.1-0.1,1.3-0.3c0.5-0.1,0.7-0.2,1.3-0.4c0.6-0.2,1.2-0.6,1.9-0.7c0.5-0.1,0.4-0.5,0.3-0.5c-0.1-0.1-0.3-0.1-0.3,0.1
		c-0.3,0.5-1.6,0.7-2,0.9c-0.5,0.1-1.1,0.3-1.9,0.3c-1.1-0.1-0.9-0.6-1.7-1.1c-0.3-0.1-0.2-0.5,0.1-0.8c0.2-0.2,0.7-0.3,0.9-0.7
		c0-0.1,0.3-0.3,0.5-0.5c0.1-0.1,0.1-1.5-0.7-1.5c-0.6,0-0.8,0.5-0.8,0.9c0,0.5,0.3,0.9,0.5,0.9c0.3,0,0,0.3-0.1,0.4
		c-0.3,0.1-0.7-1.1-0.6-1.6c0.1-0.6,0.3-1.6,1.1-1.6c0.7,0,1.1,0.9,1.1,2.2c0,0.3,1.1-0.1,1.4,0.3c0.3,0.3-0.9-2.5,1.7-2.7
		c0.7,0.1,1.3,0.3,1.5,1.9c-0.1,0.1,0.1,1.2-0.3,1.3c-0.5,0.1-0.8,0-0.5-0.5c0.2-0.5,0-1.7-1-1.6s-0.9,1.9-0.6,1.9
		c0.3,0.1,1,0.5,1.5,0.6c1.6,0.3,0.4,1.2,0.6,2.3c0.3,1.3,1.1,0.9,1.8,4.2c0.1,0.2,0.8,0.4,1.4,2.9c0.5,2.2-0.2,3.9,1.1,3.8
		c0.3,0,0.7-0.1,0.9-0.7c0.5-1.7-0.3-3.7-1-5c-0.4-0.8-0.8-1.3-1.1-1.5c0.9,0.5,1.9,2,2.1,3.2c0.3,1.5,0.5,2.2,0.1,3.8
		c0.3,0.1,1,0.5,1,0.8c-0.7-0.6-3-0.7-3,0.7c-0.4,0-0.7,0.1-0.9,0.3c-0.9,1.1-0.1,3.2-0.1,4.4c-0.1,1-0.3,2-0.5,3
		c-0.5,0-0.5-0.4-0.3-1c0.1-0.5,0.4-1.1,0.4-1.7c0-0.5-0.1-0.9-0.2-0.9s-0.3,0.1-0.7,0.5c-0.6,1-1.9,1.5-3.2,1.6s-2.4,0-3-0.7
		c-0.2-0.3-0.5,0.1-0.6,0.1c-0.1,0.1,0.2,0.3,0.4,0.6c0.3,0.5,0.5,1.3-0.1,1.7C29,44.6,28.4,44.6,27.8,43.4L27.8,43.4z M27.3,43.4
		c0.5,0.7,2,3.6-0.7,4c-0.9,0.1-2.4-0.5-3.8-0.9c-1.3-0.3-2.6-0.5-3.3-0.7c-0.5-0.1-0.6-0.3-0.7-0.5c-0.1-0.5,0.5-1.2,0.6-1.8
		s-0.2-0.9-0.4-1.4c-0.2-0.5-0.3-0.9-0.1-1.1c0.1-0.1,0.4-0.2,0.8-0.2c0.5,0.1,1.1-0.1,1.5-0.3c0.6-0.3,0.9-1.1,0.6-1.9
		c0,0.9-0.3,1.2-1,1.5s-1.7,0.1-2.1,0.5c-0.5,0.5,0.2,1.7,0.1,2.6c-0.1,0.7-0.8,1.5-0.5,2.2s1.9,0.8,3.4,1.1
		c2.2,0.5,3.6,1.3,4.6,1.3c1.5,0.1,1.8-1.5,4.2-1.5c0.7,0.1,1.4,0.1,2,0.1c0.8,0,1.6,0,2.4,0c1.6,0.1,1.1,0.9,2.1,1.4
		c0.9,0.5,2.4,0.3,2.8-0.1c0.5-0.5,1.9-1.7,2.9-2.2c1.3-0.7,4.4-1.8,2.2-3.2c-0.5-0.3-1.7-0.7-1.9-3c-0.5,0.4-0.4,2.6,0.9,3
		c1.5,0.5,2.4,1.3-0.3,2.2c-1.8,0.6-2.1,0.8-3.5,2c-1.5,1.2-3.6,0.7-3.2-1.8c0.2-1.3,0.3-2.4,0-3.5c-0.1-0.5-0.3-1.3-0.1-1.8
		c0.2-1,0.7-1.3,1.3-0.3c0.3,0.6,0.5,1.3,1.6,1.3c1.9,0.1,2.2-1.8,2.8-1.9c0.4-0.1,0.8-1.1,0.5-2.9c-0.3-1.9-1.5-4.9-2.8-6.4
		c-1.2-1.3-1.9-2.4-2.4-4c-0.4-1.3-0.6-2.6-0.5-3.8c0.1-1.6-0.8-3.8-2.2-4.9c-0.9-0.7-2.2-1-3.5-1c-0.9,0-1.5,0.1-2,0.3
		c-2.1,1.1-2.4,2.8-2.4,4.6c0,1.7,0.1,3.8,0.3,5.6c-0.3,0.9-1.5,2.5-2.2,3.5c-1.1,1.1-1.6,3-2.2,4.8c-0.3,0.9-1,1.4-1.1,2.6
		c0,0.3,0,1.2,0.3,0.9C23.5,37.3,25,39.7,27.3,43.4z M33.8,18.2c-0.1,0.2-0.3,0.3-0.2,0.5c0.2,0.1,0.3-0.2,0.6-0.3
		c0.1,0,0.5,0,0.6-0.2c0.1-0.1-0.2-0.2-0.4-0.3c-0.1-0.1-0.3-0.3-0.5-0.3C33.6,17.7,33.8,18.1,33.8,18.2z M35.9,25.5
		c0.1-0.1,0.2,0.3,0.5,0.5s0.5,0.1,0.6,0.4s-0.1,0.5-0.3,0.5C36.4,26.7,35.5,25.9,35.9,25.5z M30.1,23.2c-0.6-0.1-0.6,0.4-0.4,0.4
		C29.9,23.5,29.8,23.3,30.1,23.2z M29.1,22.2c0.1,0,0.1,0.1,0.1,0.3c-0.1,0.2,0,0.4,0.1,0.4c0,0,0.1,0,0.1-0.1
		c0.1-0.5-0.1-0.8-0.3-0.8C29,21.9,29,22.2,29.1,22.2L29.1,22.2z M33.4,22c0.1,0.1,0.3,0.3,0.3,0.6l0.2-0.1c0-0.5-0.3-0.7-0.5-0.7
		S33.2,22,33.4,22L33.4,22z M31.2,23.3c0.5-0.3,0.7,0.1,0.5,0.2C31.5,23.5,31.5,23.2,31.2,23.3z M24.8,32.2c-0.3,0,0.1-0.2,0.2-0.5
		s0.1-0.6,0.3-0.5c0.1,0.1,0.1,0.2-0.1,0.5C25.2,32,25,32.2,24.8,32.2z"/>
</g>
</svg>
