<?xml version="1.0" encoding="utf-8"?>
<!-- Generator: Adobe Illustrator 25.2.3, SVG Export Plug-In . SVG Version: 6.00 Build 0)  -->
<svg version="1.1" id="Layer_1" xmlns="http://www.w3.org/2000/svg" xmlns:xlink="http://www.w3.org/1999/xlink" x="0px" y="0px"
	 viewBox="0 0 64 64" style="enable-background:new 0 0 64 64;" xml:space="preserve">
<style type="text/css">
	.st0{fill:#FFFFFF;}
	.st1{fill-rule:evenodd;clip-rule:evenodd;fill:#FFFFFF;}
</style>
<g>
	<g>
		<path class="st0" d="M27.2,39.8c0,0.3,0,0.5,0.1,0.7c0.1,0.2,0.1,0.3,0.2,0.5c0,0.1,0.1,0.1,0.1,0.2c0,0.1,0,0.1-0.1,0.2L27,41.7
			c-0.1,0-0.1,0.1-0.2,0.1c-0.1,0-0.1,0-0.2-0.1c-0.1-0.1-0.2-0.2-0.3-0.3c-0.1-0.1-0.1-0.3-0.2-0.4c-0.6,0.7-1.3,1-2.2,1
			c-0.6,0-1.1-0.2-1.5-0.5s-0.5-0.8-0.5-1.4c0-0.6,0.2-1.1,0.7-1.5s1-0.6,1.8-0.6c0.2,0,0.5,0,0.8,0.1s0.6,0.1,0.8,0.2v-0.5
			c0-0.6-0.1-0.9-0.3-1.2C25.4,36.1,25,36,24.4,36c-0.3,0-0.5,0-0.8,0.1s-0.5,0.1-0.8,0.2c-0.1,0.1-0.2,0.1-0.3,0.1
			c-0.1,0-0.1,0-0.1,0c-0.1,0-0.2-0.1-0.2-0.2v-0.4c0-0.1,0-0.2,0.1-0.3c0-0.1,0.1-0.1,0.2-0.2c0.3-0.1,0.6-0.2,0.9-0.3
			c0.4-0.1,0.7-0.1,1.1-0.1c0.9,0,1.5,0.2,1.9,0.6c0.4,0.4,0.6,1,0.6,1.8L27.2,39.8L27.2,39.8z M24.2,40.9c0.2,0,0.5,0,0.8-0.1
			s0.5-0.2,0.7-0.5c0.1-0.1,0.2-0.3,0.2-0.5c0-0.2,0.1-0.4,0.1-0.6v-0.3c-0.2-0.1-0.4-0.1-0.7-0.1s-0.5,0-0.7,0
			c-0.5,0-0.9,0.1-1.1,0.3c-0.2,0.2-0.4,0.5-0.4,0.8c0,0.3,0.1,0.6,0.3,0.8C23.6,40.8,23.9,40.9,24.2,40.9L24.2,40.9z M30.1,41.7
			c-0.1,0-0.2,0-0.3-0.1c-0.1,0-0.1-0.1-0.2-0.3l-1.7-5.7c0-0.1-0.1-0.2-0.1-0.3c0-0.1,0.1-0.2,0.2-0.2h0.7c0.1,0,0.2,0,0.3,0.1
			c0.1,0,0.1,0.1,0.1,0.3l1.2,4.9l1.1-4.9c0-0.1,0.1-0.2,0.1-0.3c0.1,0,0.2-0.1,0.3-0.1h0.6c0.1,0,0.2,0,0.3,0.1
			c0.1,0,0.1,0.1,0.1,0.3l1.2,4.9l1.3-4.9c0-0.1,0.1-0.2,0.1-0.3c0.1,0,0.2-0.1,0.3-0.1h0.7c0.1,0,0.2,0.1,0.2,0.2c0,0,0,0.1,0,0.1
			s0,0.1-0.1,0.2l-1.8,5.7c0,0.1-0.1,0.2-0.2,0.3c-0.1,0-0.2,0.1-0.3,0.1h-0.6c-0.1,0-0.2,0-0.3-0.1c-0.1-0.1-0.1-0.1-0.1-0.3
			l-1.1-4.7l-1.1,4.7c0,0.1-0.1,0.2-0.1,0.3c-0.1,0.1-0.2,0.1-0.3,0.1H30.1z M39.5,41.9c-0.4,0-0.8,0-1.1-0.1s-0.7-0.2-0.8-0.3
			c-0.1-0.1-0.2-0.1-0.2-0.2c0-0.1,0-0.1,0-0.2v-0.4c0-0.2,0.1-0.2,0.2-0.2c0,0,0.1,0,0.1,0s0.1,0,0.2,0.1c0.2,0.1,0.5,0.2,0.8,0.3
			c0.3,0.1,0.6,0.1,0.9,0.1c0.5,0,0.8-0.1,1.1-0.2c0.2-0.2,0.4-0.4,0.4-0.7c0-0.2-0.1-0.4-0.2-0.5s-0.4-0.3-0.7-0.4l-1.1-0.3
			c-0.5-0.2-0.9-0.4-1.2-0.7c-0.2-0.3-0.4-0.7-0.4-1.1c0-0.3,0.1-0.6,0.2-0.8c0.1-0.2,0.3-0.4,0.5-0.6c0.2-0.2,0.5-0.3,0.8-0.4
			c0.3-0.1,0.6-0.1,0.9-0.1c0.2,0,0.3,0,0.5,0c0.2,0,0.3,0.1,0.5,0.1c0.1,0,0.3,0.1,0.4,0.1c0.1,0,0.2,0.1,0.3,0.1
			c0.1,0.1,0.2,0.1,0.2,0.2c0,0.1,0.1,0.1,0.1,0.2v0.3c0,0.2-0.1,0.2-0.2,0.2c-0.1,0-0.2,0-0.3-0.1c-0.4-0.2-0.9-0.3-1.4-0.3
			c-0.4,0-0.7,0.1-1,0.2c-0.2,0.1-0.3,0.4-0.3,0.7c0,0.2,0.1,0.4,0.2,0.5c0.1,0.1,0.4,0.3,0.8,0.4l1,0.3c0.5,0.2,0.9,0.4,1.1,0.7
			c0.2,0.3,0.3,0.6,0.3,1c0,0.3-0.1,0.6-0.2,0.9c-0.1,0.2-0.3,0.5-0.5,0.6c-0.2,0.2-0.5,0.3-0.8,0.4C40.2,41.9,39.9,41.9,39.5,41.9
			L39.5,41.9z"/>
		<g>
			<path class="st1" d="M40.9,45.5c-2.4,1.8-5.9,2.7-8.9,2.7c-4.2,0-8-1.6-10.9-4.2c-0.2-0.2,0-0.5,0.2-0.3
				c3.1,1.8,6.9,2.9,10.9,2.9c2.7,0,5.6-0.6,8.3-1.7C41,44.7,41.3,45.2,40.9,45.5z"/>
			<path class="st1" d="M41.9,44.3c-0.3-0.4-2-0.2-2.8-0.1c-0.2,0-0.3-0.2-0.1-0.3c1.4-1,3.6-0.7,3.9-0.4c0.3,0.3-0.1,2.6-1.4,3.7
				c-0.2,0.2-0.4,0.1-0.3-0.1C41.6,46.4,42.2,44.7,41.9,44.3z"/>
		</g>
	</g>
	<g>
		<path class="st0" d="M34.8,20.6h0.7l1.9-1.9l0.1-0.8c-3.5-3.1-8.8-2.7-11.8,0.7c-0.9,1-1.5,2.1-1.8,3.4c0.2-0.1,0.4-0.1,0.7,0
			l3.7-0.6c0,0,0.2-0.3,0.3-0.3C30.1,19.2,32.9,19,34.8,20.6L34.8,20.6L34.8,20.6z"/>
		<path class="st0" d="M39.9,22c-0.4-1.6-1.3-3-2.5-4.1l-2.6,2.6c1.1,0.9,1.7,2.3,1.7,3.7v0.5c1.3,0,2.3,1,2.3,2.3
			c0,1.3-1,2.3-2.3,2.3h-4.7l-0.5,0.5v2.8l0.5,0.5h4.7c2.7,0,5-1.7,5.8-4.3C43.1,26.3,42.2,23.5,39.9,22L39.9,22z"/>
		<path class="st0" d="M27.2,33.1h4.7v-3.7h-4.7c-0.3,0-0.7-0.1-1-0.2l-0.7,0.2l-1.9,1.9l-0.2,0.7C24.6,32.6,25.8,33.1,27.2,33.1
			L27.2,33.1z"/>
		<path class="st0" d="M27.2,20.9c-2.6,0-4.9,1.7-5.7,4.1s0,5.2,2.1,6.7l2.7-2.7C25,28.6,24.5,27.2,25,26c0.5-1.2,1.9-1.7,3.1-1.2
			c0.5,0.2,0.9,0.6,1.2,1.2l2.7-2.7C30.8,21.8,29.1,20.9,27.2,20.9L27.2,20.9z"/>
	</g>
</g>
</svg>
