<?xml version="1.0" encoding="utf-8"?>
<!-- Generator: Adobe Illustrator 25.2.3, SVG Export Plug-In . SVG Version: 6.00 Build 0)  -->
<svg version="1.1" id="Layer_1" xmlns="http://www.w3.org/2000/svg" xmlns:xlink="http://www.w3.org/1999/xlink" x="0px" y="0px"
	 viewBox="0 0 64 64" style="enable-background:new 0 0 64 64;" xml:space="preserve">
<style type="text/css">
	.st0{fill:#FFFFFF;}
</style>
<path class="st0" d="M18.1,18.6h27.7v26.9H18.1V18.6z M15.8,47.8h32.4V16.2H15.8V47.8z M37,27.5c0-0.1,0-0.2,0.2-0.2h2.1
	c0.1,0,0.2,0,0.2,0.2v10.7c0,0.1,0,0.2-0.2,0.2h-2.1c-0.1,0-0.2-0.1-0.2-0.2V27.5L37,27.5L37,27.5z M36.9,24.4
	c0-0.9,0.6-1.4,1.4-1.4c0.8,0,1.4,0.6,1.4,1.4c0,0.9-0.6,1.4-1.4,1.4C37.4,25.8,36.9,25.3,36.9,24.4z M30.8,31.9
	c-0.4-1.5-1.3-4.8-1.6-6.3l0,0c-0.3,1.6-1,4.3-1.6,6.3C27.6,31.9,30.8,31.9,30.8,31.9z M27,34.1l-1.1,4c0,0.1-0.1,0.1-0.2,0.1h-2
	c-0.1,0-0.2,0-0.1-0.2l3.8-13.4c0.1-0.2,0.1-0.5,0.1-1.1c0-0.1,0-0.1,0.1-0.1h2.8c0.1,0,0.1,0,0.2,0.1L35,38.1c0,0.1,0,0.2-0.1,0.2
	h-2.2c-0.1,0-0.2,0-0.2-0.1l-1.1-4.1L27,34.1L27,34.1z"/>
</svg>
