<?xml version="1.0" encoding="utf-8"?>
<!-- Generator: Adobe Illustrator 25.2.3, SVG Export Plug-In . SVG Version: 6.00 Build 0)  -->
<svg version="1.1" id="Layer_1" xmlns="http://www.w3.org/2000/svg" xmlns:xlink="http://www.w3.org/1999/xlink" x="0px" y="0px"
	 viewBox="0 0 64 64" style="enable-background:new 0 0 64 64;" xml:space="preserve">
<style type="text/css">
	.st0{fill:#FFFFFF;}
</style>
<g>
	<path class="st0" d="M31.9,15.9c-8.2,0-7.7,3.6-7.7,3.6l0,3.7H32v1.1h-11c0,0-5.3-0.6-5.3,7.7c0,8.3,4.6,8,4.6,8h2.7v-3.9
		c0,0-0.1-4.6,4.5-4.6h7.8c0,0,4.4,0.1,4.4-4.2v-7.1C39.8,20.2,40.5,15.9,31.9,15.9z M27.6,18.4c0.8,0,1.4,0.6,1.4,1.4c0,0,0,0,0,0
		c0,0.8-0.6,1.4-1.4,1.4c0,0,0,0,0,0c-0.8,0-1.4-0.6-1.4-1.4c0,0,0,0,0,0C26.1,19,26.8,18.4,27.6,18.4
		C27.6,18.4,27.6,18.4,27.6,18.4z"/>
	<path class="st0" d="M32.1,48.1c8.2,0,7.7-3.6,7.7-3.6l0-3.7H32v-1.1h11c0,0,5.3,0.6,5.3-7.7c0-8.3-4.6-8-4.6-8h-2.7v3.9
		c0,0,0.1,4.6-4.5,4.6h-7.8c0,0-4.4-0.1-4.4,4.2v7.1C24.2,43.8,23.5,48.1,32.1,48.1L32.1,48.1z M36.4,45.6c-0.8,0-1.4-0.6-1.4-1.4
		c0,0,0,0,0,0c0-0.8,0.6-1.4,1.4-1.4c0,0,0,0,0,0c0.8,0,1.4,0.6,1.4,1.4c0,0,0,0,0,0C37.9,45,37.2,45.6,36.4,45.6
		C36.4,45.6,36.4,45.6,36.4,45.6L36.4,45.6z"/>
</g>
</svg>
