<?xml version="1.0" encoding="utf-8"?>
<!-- Generator: Adobe Illustrator 25.2.3, SVG Export Plug-In . SVG Version: 6.00 Build 0)  -->
<svg version="1.1" id="Layer_1" xmlns="http://www.w3.org/2000/svg" xmlns:xlink="http://www.w3.org/1999/xlink" x="0px" y="0px"
	 viewBox="0 0 64 64" style="enable-background:new 0 0 64 64;" xml:space="preserve">
<style type="text/css">
	.st0{fill:#FFFFFF;}
</style>
<g>
	<path class="st0" d="M18.1,34.8h5.2v1.3c0,1.8,2.4,3.1,5.7,3.6v-4.5c-4.6-0.7-10.2-2.5-10.2-7.7c0-5.2,5.5-7.3,10.2-7.9v-4H35v4.1
		c2.2,0.4,4.1,1.3,5.4,2.2v-1.9h5.2v9.2h-5.2V28c0-1.8-2.7-2.8-5.4-3.3v4.1c5.8,0.7,10.9,2.1,10.9,8.4c0,4.2-3.5,7-10.9,7.6v3.3H29
		v-3.4c-2.3-0.2-4.3-0.8-5.7-1.5v1h-5.2V34.8z M29,28.1v-3.5c-1.6,0.2-2.5,0.8-2.5,2.2C26.5,27.7,27.5,27.9,29,28.1z M35,35.9v4
		c1.6-0.3,3.1-0.9,3.1-1.9C38.1,36.4,36.9,36.1,35,35.9z"/>
</g>
</svg>
